<mxfile host="app.diagrams.net" agent="Mozilla/5.0 (X11; Ubuntu; Linux x86_64; rv:139.0) Gecko/20100101 Firefox/139.0" version="27.1.6">
  <diagram name="Page-1" id="YjFWroZfinGdkZ9rDFu2">
    <mxGraphModel dx="1097" dy="620" grid="1" gridSize="10" guides="1" tooltips="1" connect="1" arrows="1" fold="1" page="1" pageScale="1" pageWidth="850" pageHeight="1100" math="0" shadow="0">
      <root>
        <mxCell id="0" />
        <mxCell id="1" parent="0" />
        <mxCell id="2Cll-eA0aYjKSWwGcevk-15" style="edgeStyle=orthogonalEdgeStyle;rounded=0;orthogonalLoop=1;jettySize=auto;html=1;" edge="1" parent="1" source="2Cll-eA0aYjKSWwGcevk-2" target="2Cll-eA0aYjKSWwGcevk-10">
          <mxGeometry relative="1" as="geometry" />
        </mxCell>
        <mxCell id="2Cll-eA0aYjKSWwGcevk-23" style="edgeStyle=orthogonalEdgeStyle;rounded=0;orthogonalLoop=1;jettySize=auto;html=1;" edge="1" parent="1" source="2Cll-eA0aYjKSWwGcevk-2" target="2Cll-eA0aYjKSWwGcevk-22">
          <mxGeometry relative="1" as="geometry">
            <Array as="points">
              <mxPoint x="45" y="210" />
            </Array>
          </mxGeometry>
        </mxCell>
        <mxCell id="2Cll-eA0aYjKSWwGcevk-2" value="Professeur" style="shape=umlActor;verticalLabelPosition=bottom;verticalAlign=top;html=1;" vertex="1" parent="1">
          <mxGeometry x="30" y="110" width="30" height="60" as="geometry" />
        </mxCell>
        <mxCell id="2Cll-eA0aYjKSWwGcevk-41" style="edgeStyle=orthogonalEdgeStyle;rounded=0;orthogonalLoop=1;jettySize=auto;html=1;" edge="1" parent="1" source="2Cll-eA0aYjKSWwGcevk-3" target="2Cll-eA0aYjKSWwGcevk-40">
          <mxGeometry relative="1" as="geometry" />
        </mxCell>
        <mxCell id="2Cll-eA0aYjKSWwGcevk-58" style="edgeStyle=orthogonalEdgeStyle;rounded=0;orthogonalLoop=1;jettySize=auto;html=1;entryX=0;entryY=0.5;entryDx=0;entryDy=0;" edge="1" parent="1" source="2Cll-eA0aYjKSWwGcevk-3" target="2Cll-eA0aYjKSWwGcevk-45">
          <mxGeometry relative="1" as="geometry">
            <mxPoint x="231" y="520" as="targetPoint" />
            <Array as="points">
              <mxPoint x="45" y="535" />
            </Array>
          </mxGeometry>
        </mxCell>
        <mxCell id="2Cll-eA0aYjKSWwGcevk-3" value="&lt;div&gt;Etudiant&lt;/div&gt;&lt;div&gt;&lt;br&gt;&lt;/div&gt;" style="shape=umlActor;verticalLabelPosition=bottom;verticalAlign=top;html=1;" vertex="1" parent="1">
          <mxGeometry x="20" y="290" width="30" height="60" as="geometry" />
        </mxCell>
        <mxCell id="2Cll-eA0aYjKSWwGcevk-10" value="&lt;div&gt;Créer examen&lt;/div&gt;" style="ellipse;whiteSpace=wrap;html=1;" vertex="1" parent="1">
          <mxGeometry x="200" y="70" width="140" height="70" as="geometry" />
        </mxCell>
        <mxCell id="2Cll-eA0aYjKSWwGcevk-77" style="edgeStyle=orthogonalEdgeStyle;rounded=0;orthogonalLoop=1;jettySize=auto;html=1;" edge="1" parent="1" source="2Cll-eA0aYjKSWwGcevk-16" target="2Cll-eA0aYjKSWwGcevk-73">
          <mxGeometry relative="1" as="geometry" />
        </mxCell>
        <mxCell id="2Cll-eA0aYjKSWwGcevk-16" value="Authentifier" style="ellipse;whiteSpace=wrap;html=1;" vertex="1" parent="1">
          <mxGeometry x="510" y="60" width="140" height="70" as="geometry" />
        </mxCell>
        <mxCell id="2Cll-eA0aYjKSWwGcevk-17" value="" style="endArrow=open;endSize=12;dashed=1;html=1;rounded=0;" edge="1" parent="1" source="2Cll-eA0aYjKSWwGcevk-10" target="2Cll-eA0aYjKSWwGcevk-16">
          <mxGeometry x="-0.0004" width="160" relative="1" as="geometry">
            <mxPoint x="380" y="310" as="sourcePoint" />
            <mxPoint x="540" y="310" as="targetPoint" />
            <Array as="points" />
            <mxPoint as="offset" />
          </mxGeometry>
        </mxCell>
        <mxCell id="2Cll-eA0aYjKSWwGcevk-20" value="&amp;lt;&amp;lt;include&amp;gt;&amp;gt;" style="edgeLabel;html=1;align=center;verticalAlign=middle;resizable=0;points=[];" vertex="1" connectable="0" parent="2Cll-eA0aYjKSWwGcevk-17">
          <mxGeometry x="-0.0652" y="-2" relative="1" as="geometry">
            <mxPoint x="14" y="-21" as="offset" />
          </mxGeometry>
        </mxCell>
        <mxCell id="2Cll-eA0aYjKSWwGcevk-22" value="Ajouter des questions à l’examen" style="ellipse;whiteSpace=wrap;html=1;" vertex="1" parent="1">
          <mxGeometry x="180" y="180" width="140" height="70" as="geometry" />
        </mxCell>
        <mxCell id="2Cll-eA0aYjKSWwGcevk-25" value="Ajouter un texte de question" style="ellipse;whiteSpace=wrap;html=1;" vertex="1" parent="1">
          <mxGeometry x="410" y="140" width="140" height="70" as="geometry" />
        </mxCell>
        <mxCell id="2Cll-eA0aYjKSWwGcevk-26" value="" style="endArrow=open;endSize=12;dashed=1;html=1;rounded=0;" edge="1" parent="1" source="2Cll-eA0aYjKSWwGcevk-22" target="2Cll-eA0aYjKSWwGcevk-25">
          <mxGeometry x="-0.0004" width="160" relative="1" as="geometry">
            <mxPoint x="280" y="234" as="sourcePoint" />
            <mxPoint x="442" y="250" as="targetPoint" />
            <Array as="points" />
            <mxPoint as="offset" />
          </mxGeometry>
        </mxCell>
        <mxCell id="2Cll-eA0aYjKSWwGcevk-27" value="&amp;lt;&amp;lt;include&amp;gt;&amp;gt;" style="edgeLabel;html=1;align=center;verticalAlign=middle;resizable=0;points=[];" vertex="1" connectable="0" parent="2Cll-eA0aYjKSWwGcevk-26">
          <mxGeometry x="-0.0652" y="-2" relative="1" as="geometry">
            <mxPoint x="-3" y="-22" as="offset" />
          </mxGeometry>
        </mxCell>
        <mxCell id="2Cll-eA0aYjKSWwGcevk-31" value="Ajuoter une image" style="ellipse;whiteSpace=wrap;html=1;" vertex="1" parent="1">
          <mxGeometry x="460" y="230" width="140" height="70" as="geometry" />
        </mxCell>
        <mxCell id="2Cll-eA0aYjKSWwGcevk-35" value="&amp;lt;&amp;lt;exclude&amp;gt;&amp;gt;" style="endArrow=open;endSize=12;dashed=1;html=1;rounded=0;entryX=1;entryY=1;entryDx=0;entryDy=0;" edge="1" parent="1" source="2Cll-eA0aYjKSWwGcevk-31" target="2Cll-eA0aYjKSWwGcevk-22">
          <mxGeometry x="-0.2744" y="-15" width="160" relative="1" as="geometry">
            <mxPoint x="380" y="330" as="sourcePoint" />
            <mxPoint x="540" y="330" as="targetPoint" />
            <Array as="points">
              <mxPoint x="440" y="250" />
            </Array>
            <mxPoint as="offset" />
          </mxGeometry>
        </mxCell>
        <mxCell id="2Cll-eA0aYjKSWwGcevk-40" value="Accéder à l’examen par le lien" style="ellipse;whiteSpace=wrap;html=1;" vertex="1" parent="1">
          <mxGeometry x="180" y="285" width="140" height="70" as="geometry" />
        </mxCell>
        <mxCell id="2Cll-eA0aYjKSWwGcevk-42" value="Saisir&amp;nbsp; adresse email" style="ellipse;whiteSpace=wrap;html=1;" vertex="1" parent="1">
          <mxGeometry x="430" y="310" width="140" height="70" as="geometry" />
        </mxCell>
        <mxCell id="2Cll-eA0aYjKSWwGcevk-43" value="" style="endArrow=open;endSize=12;dashed=1;html=1;rounded=0;exitX=1;exitY=0.5;exitDx=0;exitDy=0;" edge="1" parent="1" source="2Cll-eA0aYjKSWwGcevk-40" target="2Cll-eA0aYjKSWwGcevk-42">
          <mxGeometry x="-0.0004" width="160" relative="1" as="geometry">
            <mxPoint x="430" y="368" as="sourcePoint" />
            <mxPoint x="532" y="360" as="targetPoint" />
            <Array as="points" />
            <mxPoint as="offset" />
          </mxGeometry>
        </mxCell>
        <mxCell id="2Cll-eA0aYjKSWwGcevk-44" value="&amp;lt;&amp;lt;include&amp;gt;&amp;gt;" style="edgeLabel;html=1;align=center;verticalAlign=middle;resizable=0;points=[];" vertex="1" connectable="0" parent="2Cll-eA0aYjKSWwGcevk-43">
          <mxGeometry x="-0.0652" y="-2" relative="1" as="geometry">
            <mxPoint x="14" y="-21" as="offset" />
          </mxGeometry>
        </mxCell>
        <mxCell id="2Cll-eA0aYjKSWwGcevk-45" value="Consulter sa note" style="ellipse;whiteSpace=wrap;html=1;" vertex="1" parent="1">
          <mxGeometry x="320" y="500" width="140" height="70" as="geometry" />
        </mxCell>
        <mxCell id="2Cll-eA0aYjKSWwGcevk-62" value="" style="endArrow=open;endSize=12;dashed=1;html=1;rounded=0;" edge="1" parent="1" source="2Cll-eA0aYjKSWwGcevk-10" target="2Cll-eA0aYjKSWwGcevk-22">
          <mxGeometry x="-0.0004" width="160" relative="1" as="geometry">
            <mxPoint x="340" y="130" as="sourcePoint" />
            <mxPoint x="510" y="130" as="targetPoint" />
            <Array as="points" />
            <mxPoint as="offset" />
          </mxGeometry>
        </mxCell>
        <mxCell id="2Cll-eA0aYjKSWwGcevk-63" value="&amp;lt;&amp;lt;include&amp;gt;&amp;gt;" style="edgeLabel;html=1;align=center;verticalAlign=middle;resizable=0;points=[];" vertex="1" connectable="0" parent="2Cll-eA0aYjKSWwGcevk-62">
          <mxGeometry x="-0.0652" y="-2" relative="1" as="geometry">
            <mxPoint x="42" y="-4" as="offset" />
          </mxGeometry>
        </mxCell>
        <mxCell id="2Cll-eA0aYjKSWwGcevk-70" value="Calcul automatique du score à la fin de l&#39;examen" style="ellipse;whiteSpace=wrap;html=1;" vertex="1" parent="1">
          <mxGeometry x="490" y="430" width="145" height="70" as="geometry" />
        </mxCell>
        <mxCell id="2Cll-eA0aYjKSWwGcevk-73" value="Generer un lien unique" style="ellipse;whiteSpace=wrap;html=1;" vertex="1" parent="1">
          <mxGeometry x="600" y="180" width="140" height="70" as="geometry" />
        </mxCell>
        <mxCell id="2Cll-eA0aYjKSWwGcevk-75" style="edgeStyle=orthogonalEdgeStyle;rounded=0;orthogonalLoop=1;jettySize=auto;html=1;exitX=0.5;exitY=1;exitDx=0;exitDy=0;" edge="1" parent="1" source="2Cll-eA0aYjKSWwGcevk-25" target="2Cll-eA0aYjKSWwGcevk-25">
          <mxGeometry relative="1" as="geometry" />
        </mxCell>
        <mxCell id="2Cll-eA0aYjKSWwGcevk-79" value="Soumettre l&#39;examen" style="ellipse;whiteSpace=wrap;html=1;" vertex="1" parent="1">
          <mxGeometry x="170" y="390" width="140" height="70" as="geometry" />
        </mxCell>
        <mxCell id="2Cll-eA0aYjKSWwGcevk-83" style="edgeStyle=orthogonalEdgeStyle;rounded=0;orthogonalLoop=1;jettySize=auto;html=1;entryX=0.006;entryY=0.696;entryDx=0;entryDy=0;entryPerimeter=0;" edge="1" parent="1" source="2Cll-eA0aYjKSWwGcevk-3" target="2Cll-eA0aYjKSWwGcevk-79">
          <mxGeometry relative="1" as="geometry" />
        </mxCell>
        <mxCell id="2Cll-eA0aYjKSWwGcevk-84" value="" style="endArrow=open;endSize=12;dashed=1;html=1;rounded=0;" edge="1" parent="1" source="2Cll-eA0aYjKSWwGcevk-79" target="2Cll-eA0aYjKSWwGcevk-70">
          <mxGeometry x="-0.0004" width="160" relative="1" as="geometry">
            <mxPoint x="360" y="472" as="sourcePoint" />
            <mxPoint x="444" y="460" as="targetPoint" />
            <Array as="points" />
            <mxPoint as="offset" />
          </mxGeometry>
        </mxCell>
        <mxCell id="2Cll-eA0aYjKSWwGcevk-85" value="&amp;lt;&amp;lt;include&amp;gt;&amp;gt;" style="edgeLabel;html=1;align=center;verticalAlign=middle;resizable=0;points=[];" vertex="1" connectable="0" parent="2Cll-eA0aYjKSWwGcevk-84">
          <mxGeometry x="-0.0652" y="-2" relative="1" as="geometry">
            <mxPoint x="-3" y="-22" as="offset" />
          </mxGeometry>
        </mxCell>
        <mxCell id="2Cll-eA0aYjKSWwGcevk-87" value="" style="endArrow=open;endSize=12;dashed=1;html=1;rounded=0;exitX=0.698;exitY=0.919;exitDx=0;exitDy=0;exitPerimeter=0;" edge="1" parent="1" source="2Cll-eA0aYjKSWwGcevk-40" target="2Cll-eA0aYjKSWwGcevk-79">
          <mxGeometry x="-0.0004" width="160" relative="1" as="geometry">
            <mxPoint x="300" y="370" as="sourcePoint" />
            <mxPoint x="416" y="396" as="targetPoint" />
            <Array as="points" />
            <mxPoint as="offset" />
          </mxGeometry>
        </mxCell>
        <mxCell id="2Cll-eA0aYjKSWwGcevk-88" value="&amp;lt;&amp;lt;include&amp;gt;&amp;gt;" style="edgeLabel;html=1;align=center;verticalAlign=middle;resizable=0;points=[];" vertex="1" connectable="0" parent="2Cll-eA0aYjKSWwGcevk-87">
          <mxGeometry x="-0.0652" y="-2" relative="1" as="geometry">
            <mxPoint x="35" as="offset" />
          </mxGeometry>
        </mxCell>
        <mxCell id="2Cll-eA0aYjKSWwGcevk-90" value="&amp;lt;&amp;lt;exclude&amp;gt;&amp;gt;" style="endArrow=open;endSize=12;dashed=1;html=1;rounded=0;exitX=0.5;exitY=0;exitDx=0;exitDy=0;" edge="1" parent="1" source="2Cll-eA0aYjKSWwGcevk-45" target="2Cll-eA0aYjKSWwGcevk-79">
          <mxGeometry x="-0.6266" y="-29" width="160" relative="1" as="geometry">
            <mxPoint x="355" y="494" as="sourcePoint" />
            <mxPoint x="200" y="470" as="targetPoint" />
            <Array as="points">
              <mxPoint x="340" y="490" />
            </Array>
            <mxPoint as="offset" />
          </mxGeometry>
        </mxCell>
        <mxCell id="2Cll-eA0aYjKSWwGcevk-95" value="&lt;code data-end=&quot;913&quot; data-start=&quot;880&quot;&gt;Application de gestion d&#39;examen&lt;/code&gt;." style="shape=umlFrame;whiteSpace=wrap;html=1;pointerEvents=0;width=250;height=40;" vertex="1" parent="1">
          <mxGeometry x="150" y="20" width="610" height="580" as="geometry" />
        </mxCell>
      </root>
    </mxGraphModel>
  </diagram>
</mxfile>
